<mxfile host="app.diagrams.net" modified="2024-06-14T08:09:29.116Z" agent="Mozilla/5.0 (Windows NT 10.0; Win64; x64) AppleWebKit/537.36 (KHTML, like Gecko) Chrome/120.0.0.0 Safari/537.36" etag="qnk3s8SosKKruDCgMQss" version="24.5.4" type="github">
  <diagram name="Page-1" id="Ld45PE3RWySj_4XHwbNz">
    <mxGraphModel dx="1434" dy="758" grid="1" gridSize="10" guides="1" tooltips="1" connect="1" arrows="1" fold="1" page="1" pageScale="1" pageWidth="850" pageHeight="1100" math="0" shadow="0">
      <root>
        <mxCell id="0" />
        <mxCell id="1" parent="0" />
        <mxCell id="shM42MrG8GH0HLOxf-E8-3" value="Replica 1- n" style="strokeWidth=2;html=1;shape=mxgraph.flowchart.database;whiteSpace=wrap;fillColor=#dae8fc;strokeColor=#6c8ebf;shadow=0;fillStyle=hachure;sketch=1;curveFitting=1;jiggle=2;" vertex="1" parent="1">
          <mxGeometry x="230" y="55" width="120" height="220" as="geometry" />
        </mxCell>
        <mxCell id="shM42MrG8GH0HLOxf-E8-2" value="Leader" style="strokeWidth=2;html=1;shape=mxgraph.flowchart.database;whiteSpace=wrap;fillColor=#dae8fc;strokeColor=#6c8ebf;sketch=1;curveFitting=1;jiggle=2;" vertex="1" parent="1">
          <mxGeometry x="80" y="50" width="130" height="230" as="geometry" />
        </mxCell>
        <mxCell id="shM42MrG8GH0HLOxf-E8-5" value="" style="shape=image;imageAspect=0;aspect=fixed;verticalLabelPosition=bottom;verticalAlign=top;image=data:image/svg+xml,PHN2ZyB4bWxucz0iaHR0cDovL3d3dy53My5vcmcvMjAwMC9zdmciIHhtbDpzcGFjZT0icHJlc2VydmUiIHZpZXdCb3g9IjAgMCA0MzIuMDcxIDQ0NS4zODMiIGhlaWdodD0iNDQ1LjM4M3B0IiB3aWR0aD0iNDMyLjA3MXB0Ij4mI3hhOzxnIHN0eWxlPSJmaWxsLXJ1bGU6bm9uemVybztjbGlwLXJ1bGU6bm9uemVybztzdHJva2U6IzAwMDAwMDtzdHJva2UtbWl0ZXJsaW1pdDo0OyIgaWQ9Im9yZ2luYWwiPiYjeGE7CTwvZz4mI3hhOzxnIHN0eWxlPSJmaWxsLXJ1bGU6bm9uemVybztjbGlwLXJ1bGU6bm9uemVybztmaWxsOm5vbmU7c3Ryb2tlOiNGRkZGRkY7c3Ryb2tlLXdpZHRoOjEyLjQ2NTE7c3Ryb2tlLWxpbmVjYXA6cm91bmQ7c3Ryb2tlLWxpbmVqb2luOnJvdW5kO3N0cm9rZS1taXRlcmxpbWl0OjQ7IiBpZD0iTGF5ZXJfeDAwMjBfMyI+JiN4YTs8cGF0aCBkPSJNMzIzLjIwNSwzMjQuMjI3YzIuODMzLTIzLjYwMSwxLjk4NC0yNy4wNjIsMTkuNTYzLTIzLjIzOWw0LjQ2MywwLjM5MmMxMy41MTcsMC42MTUsMzEuMTk5LTIuMTc0LDQxLjU4Ny03YzIyLjM2Mi0xMC4zNzYsMzUuNjIyLTI3LjcsMTMuNTcyLTIzLjE0OGMtNTAuMjk3LDEwLjM3Ni01My43NTUtNi42NTUtNTMuNzU1LTYuNjU1YzUzLjExMS03OC44MDMsNzUuMzEzLTE3OC44MzYsNTYuMTQ5LTIwMy4zMjIgICAgQzM1Mi41MTQtNS41MzQsMjYyLjAzNiwyNi4wNDksMjYwLjUyMiwyNi44NjlsLTAuNDgyLDAuMDg5Yy05LjkzOC0yLjA2Mi0yMS4wNi0zLjI5NC0zMy41NTQtMy40OTZjLTIyLjc2MS0wLjM3NC00MC4wMzIsNS45NjctNTMuMTMzLDE1LjkwNGMwLDAtMTYxLjQwOC02Ni40OTgtMTUzLjg5OSw4My42MjhjMS41OTcsMzEuOTM2LDQ1Ljc3NywyNDEuNjU1LDk4LjQ3LDE3OC4zMSAgICBjMTkuMjU5LTIzLjE2MywzNy44NzEtNDIuNzQ4LDM3Ljg3MS00Mi43NDhjOS4yNDIsNi4xNCwyMC4zMDcsOS4yNzIsMzEuOTEyLDguMTQ3bDAuODk3LTAuNzY1Yy0wLjI4MSwyLjg3Ni0wLjE1Nyw1LjY4OSwwLjM1OSw5LjAxOWMtMTMuNTcyLDE1LjE2Ny05LjU4NCwxNy44My0zNi43MjMsMjMuNDE2Yy0yNy40NTcsNS42NTktMTEuMzI2LDE1LjczNC0wLjc5NywxOC4zNjdjMTIuNzY4LDMuMTkzLDQyLjMwNSw3LjcxNiw2Mi4yNjgtMjAuMjI0ICAgIGwtMC43OTUsMy4xODhjNS4zMjUsNC4yNiw0Ljk2NSwzMC42MTksNS43Miw0OS40NTJjMC43NTYsMTguODM0LDIuMDE3LDM2LjQwOSw1Ljg1Niw0Ni43NzFjMy44MzksMTAuMzYsOC4zNjksMzcuMDUsNDQuMDM2LDI5LjQwNmMyOS44MDktNi4zODgsNTIuNi0xNS41ODIsNTQuNjc3LTEwMS4xMDciIHN0eWxlPSJmaWxsOiMwMDAwMDA7c3Ryb2tlOiMwMDAwMDA7c3Ryb2tlLXdpZHRoOjM3LjM5NTM7c3Ryb2tlLWxpbmVjYXA6YnV0dDtzdHJva2UtbGluZWpvaW46bWl0ZXI7Ii8+JiN4YTs8cGF0aCBkPSJNNDAyLjM5NSwyNzEuMjNjLTUwLjMwMiwxMC4zNzYtNTMuNzYtNi42NTUtNTMuNzYtNi42NTVjNTMuMTExLTc4LjgwOCw3NS4zMTMtMTc4Ljg0Myw1Ni4xNTMtMjAzLjMyNmMtNTIuMjctNjYuNzg1LTE0Mi43NTItMzUuMi0xNDQuMjYyLTM0LjM4bC0wLjQ4NiwwLjA4N2MtOS45MzgtMi4wNjMtMjEuMDYtMy4yOTItMzMuNTYtMy40OTZjLTIyLjc2MS0wLjM3My00MC4wMjYsNS45NjctNTMuMTI3LDE1LjkwMiAgICBjMCwwLTE2MS40MTEtNjYuNDk1LTE1My45MDQsODMuNjNjMS41OTcsMzEuOTM4LDQ1Ljc3NiwyNDEuNjU3LDk4LjQ3MSwxNzguMzEyYzE5LjI2LTIzLjE2MywzNy44NjktNDIuNzQ4LDM3Ljg2OS00Mi43NDhjOS4yNDMsNi4xNCwyMC4zMDgsOS4yNzIsMzEuOTA4LDguMTQ3bDAuOTAxLTAuNzY1Yy0wLjI4LDIuODc2LTAuMTUyLDUuNjg5LDAuMzYxLDkuMDE5Yy0xMy41NzUsMTUuMTY3LTkuNTg2LDE3LjgzLTM2LjcyMywyMy40MTYgICAgYy0yNy40NTksNS42NTktMTEuMzI4LDE1LjczNC0wLjc5NiwxOC4zNjdjMTIuNzY4LDMuMTkzLDQyLjMwNyw3LjcxNiw2Mi4yNjYtMjAuMjI0bC0wLjc5NiwzLjE4OGM1LjMxOSw0LjI2LDkuMDU0LDI3LjcxMSw4LjQyOCw0OC45NjljLTAuNjI2LDIxLjI1OS0xLjA0NCwzNS44NTQsMy4xNDcsNDcuMjU0YzQuMTkxLDExLjQsOC4zNjgsMzcuMDUsNDQuMDQyLDI5LjQwNmMyOS44MDktNi4zODgsNDUuMjU2LTIyLjk0Miw0Ny40MDUtNTAuNTU1ICAgIGMxLjUyNS0xOS42MzEsNC45NzYtMTYuNzI5LDUuMTk0LTM0LjI4bDIuNzY4LTguMzA5YzMuMTkyLTI2LjYxMSwwLjUwNy0zNS4xOTYsMTguODcyLTMxLjIwM2w0LjQ2MywwLjM5MmMxMy41MTcsMC42MTUsMzEuMjA4LTIuMTc0LDQxLjU5MS03YzIyLjM1OC0xMC4zNzYsMzUuNjE4LTI3LjcsMTMuNTczLTIzLjE0OHoiIHN0eWxlPSJmaWxsOiMzMzY3OTE7c3Ryb2tlOm5vbmU7Ii8+JiN4YTs8cGF0aCBkPSJNMjE1Ljg2NiwyODYuNDg0Yy0xLjM4NSw0OS41MTYsMC4zNDgsOTkuMzc3LDUuMTkzLDExMS40OTVjNC44NDgsMTIuMTE4LDE1LjIyMywzNS42ODgsNTAuOSwyOC4wNDVjMjkuODA2LTYuMzksNDAuNjUxLTE4Ljc1Niw0NS4zNTctNDYuMDUxYzMuNDY2LTIwLjA4MiwxMC4xNDgtNzUuODU0LDExLjAwNS04Ny4yODEiLz4mI3hhOzxwYXRoIGQ9Ik0xNzMuMTA0LDM4LjI1NmMwLDAtMTYxLjUyMS02Ni4wMTYtMTU0LjAxMiw4NC4xMDljMS41OTcsMzEuOTM4LDQ1Ljc3OSwyNDEuNjY0LDk4LjQ3MywxNzguMzE2YzE5LjI1Ni0yMy4xNjYsMzYuNjcxLTQxLjMzNSwzNi42NzEtNDEuMzM1Ii8+JiN4YTs8cGF0aCBkPSJNMjYwLjM0OSwyNi4yMDdjLTUuNTkxLDEuNzUzLDg5Ljg0OC0zNC44ODksMTQ0LjA4NywzNC40MTdjMTkuMTU5LDI0LjQ4NC0zLjA0MywxMjQuNTE5LTU2LjE1MywyMDMuMzI5Ii8+JiN4YTs8cGF0aCBkPSJNMzQ4LjI4MiwyNjMuOTUzYzAsMCwzLjQ2MSwxNy4wMzYsNTMuNzY0LDYuNjUzYzIyLjA0LTQuNTUyLDguNzc2LDEyLjc3NC0xMy41NzcsMjMuMTU1Yy0xOC4zNDUsOC41MTQtNTkuNDc0LDEwLjY5Ni02MC4xNDYtMS4wNjljLTEuNzI5LTMwLjM1NSwyMS42NDctMjEuMTMzLDE5Ljk2LTI4LjczOWMtMS41MjUtNi44NS0xMS45NzktMTMuNTczLTE4Ljg5NC0zMC4zMzggICAgYy02LjAzNy0xNC42MzMtODIuNzk2LTEyNi44NDksMjEuMjg3LTExMC4xODNjMy44MTMtMC43ODktMjcuMTQ2LTk5LjAwMi0xMjQuNTUzLTEwMC41OTljLTk3LjM4NS0xLjU5Ny05NC4xOSwxMTkuNzYyLTk0LjE5LDExOS43NjIiIHN0eWxlPSJzdHJva2UtbGluZWpvaW46YmV2ZWw7Ii8+JiN4YTs8cGF0aCBkPSJNMTg4LjYwNCwyNzQuMzM0Yy0xMy41NzcsMTUuMTY2LTkuNTg0LDE3LjgyOS0zNi43MjMsMjMuNDE3Yy0yNy40NTksNS42Ni0xMS4zMjYsMTUuNzMzLTAuNzk3LDE4LjM2NWMxMi43NjgsMy4xOTUsNDIuMzA3LDcuNzE4LDYyLjI2Ni0yMC4yMjljNi4wNzgtOC41MDktMC4wMzYtMjIuMDg2LTguMzg1LTI1LjU0N2MtNC4wMzQtMS42NzEtOS40MjgtMy43NjUtMTYuMzYxLDMuOTk0eiIvPiYjeGE7PHBhdGggZD0iTTE4Ny43MTUsMjc0LjA2OWMtMS4zNjgtOC45MTcsMi45My0xOS41MjgsNy41MzYtMzEuOTQyYzYuOTIyLTE4LjYyNiwyMi44OTMtMzcuMjU1LDEwLjExNy05Ni4zMzljLTkuNTIzLTQ0LjAyOS03My4zOTYtOS4xNjMtNzMuNDM2LTMuMTkzYy0wLjAzOSw1Ljk2OCwyLjg4OSwzMC4yNi0xLjA2Nyw1OC41NDhjLTUuMTYyLDM2LjkxMywyMy40ODgsNjguMTMyLDU2LjQ3OSw2NC45MzgiLz4mI3hhOzxwYXRoIGQ9Ik0xNzIuNTE3LDE0MS43Yy0wLjI4OCwyLjAzOSwzLjczMyw3LjQ4LDguOTc2LDguMjA3YzUuMjM0LDAuNzMsOS43MTQtMy41MjIsOS45OTgtNS41NTljMC4yODQtMi4wMzktMy43MzItNC4yODUtOC45NzctNS4wMTVjLTUuMjM3LTAuNzMxLTkuNzE5LDAuMzMzLTkuOTk2LDIuMzY3eiIgc3R5bGU9ImZpbGw6I0ZGRkZGRjtzdHJva2Utd2lkdGg6NC4xNTU7c3Ryb2tlLWxpbmVjYXA6YnV0dDtzdHJva2UtbGluZWpvaW46bWl0ZXI7Ii8+JiN4YTs8cGF0aCBkPSJNMzMxLjk0MSwxMzcuNTQzYzAuMjg0LDIuMDM5LTMuNzMyLDcuNDgtOC45NzYsOC4yMDdjLTUuMjM4LDAuNzMtOS43MTgtMy41MjItMTAuMDA1LTUuNTU5Yy0wLjI3Ny0yLjAzOSwzLjc0LTQuMjg1LDguOTc5LTUuMDE1YzUuMjM5LTAuNzMsOS43MTgsMC4zMzMsMTAuMDAyLDIuMzY4eiIgc3R5bGU9ImZpbGw6I0ZGRkZGRjtzdHJva2Utd2lkdGg6Mi4wNzc1O3N0cm9rZS1saW5lY2FwOmJ1dHQ7c3Ryb2tlLWxpbmVqb2luOm1pdGVyOyIvPiYjeGE7PHBhdGggZD0iTTM1MC42NzYsMTIzLjQzMmMwLjg2MywxNS45OTQtMy40NDUsMjYuODg4LTMuOTg4LDQzLjkxNGMtMC44MDQsMjQuNzQ4LDExLjc5OSw1My4wNzQtNy4xOTEsODEuNDM1Ii8+JiN4YTs8cGF0aCBkPSJNMCw2MC4yMzIiIHN0eWxlPSJzdHJva2Utd2lkdGg6MzsiLz4mI3hhOzwvZz4mI3hhOzwvc3ZnPg==;rounded=1;sketch=1;curveFitting=1;jiggle=2;" vertex="1" parent="1">
          <mxGeometry x="270.6100000000001" y="200" width="38.77" height="40" as="geometry" />
        </mxCell>
        <mxCell id="shM42MrG8GH0HLOxf-E8-6" value="" style="shape=image;imageAspect=0;aspect=fixed;verticalLabelPosition=bottom;verticalAlign=top;image=data:image/svg+xml,PHN2ZyB4bWxucz0iaHR0cDovL3d3dy53My5vcmcvMjAwMC9zdmciIHhtbDpzcGFjZT0icHJlc2VydmUiIHZpZXdCb3g9IjAgMCA0MzIuMDcxIDQ0NS4zODMiIGhlaWdodD0iNDQ1LjM4M3B0IiB3aWR0aD0iNDMyLjA3MXB0Ij4mI3hhOzxnIHN0eWxlPSJmaWxsLXJ1bGU6bm9uemVybztjbGlwLXJ1bGU6bm9uemVybztzdHJva2U6IzAwMDAwMDtzdHJva2UtbWl0ZXJsaW1pdDo0OyIgaWQ9Im9yZ2luYWwiPiYjeGE7CTwvZz4mI3hhOzxnIHN0eWxlPSJmaWxsLXJ1bGU6bm9uemVybztjbGlwLXJ1bGU6bm9uemVybztmaWxsOm5vbmU7c3Ryb2tlOiNGRkZGRkY7c3Ryb2tlLXdpZHRoOjEyLjQ2NTE7c3Ryb2tlLWxpbmVjYXA6cm91bmQ7c3Ryb2tlLWxpbmVqb2luOnJvdW5kO3N0cm9rZS1taXRlcmxpbWl0OjQ7IiBpZD0iTGF5ZXJfeDAwMjBfMyI+JiN4YTs8cGF0aCBkPSJNMzIzLjIwNSwzMjQuMjI3YzIuODMzLTIzLjYwMSwxLjk4NC0yNy4wNjIsMTkuNTYzLTIzLjIzOWw0LjQ2MywwLjM5MmMxMy41MTcsMC42MTUsMzEuMTk5LTIuMTc0LDQxLjU4Ny03YzIyLjM2Mi0xMC4zNzYsMzUuNjIyLTI3LjcsMTMuNTcyLTIzLjE0OGMtNTAuMjk3LDEwLjM3Ni01My43NTUtNi42NTUtNTMuNzU1LTYuNjU1YzUzLjExMS03OC44MDMsNzUuMzEzLTE3OC44MzYsNTYuMTQ5LTIwMy4zMjIgICAgQzM1Mi41MTQtNS41MzQsMjYyLjAzNiwyNi4wNDksMjYwLjUyMiwyNi44NjlsLTAuNDgyLDAuMDg5Yy05LjkzOC0yLjA2Mi0yMS4wNi0zLjI5NC0zMy41NTQtMy40OTZjLTIyLjc2MS0wLjM3NC00MC4wMzIsNS45NjctNTMuMTMzLDE1LjkwNGMwLDAtMTYxLjQwOC02Ni40OTgtMTUzLjg5OSw4My42MjhjMS41OTcsMzEuOTM2LDQ1Ljc3NywyNDEuNjU1LDk4LjQ3LDE3OC4zMSAgICBjMTkuMjU5LTIzLjE2MywzNy44NzEtNDIuNzQ4LDM3Ljg3MS00Mi43NDhjOS4yNDIsNi4xNCwyMC4zMDcsOS4yNzIsMzEuOTEyLDguMTQ3bDAuODk3LTAuNzY1Yy0wLjI4MSwyLjg3Ni0wLjE1Nyw1LjY4OSwwLjM1OSw5LjAxOWMtMTMuNTcyLDE1LjE2Ny05LjU4NCwxNy44My0zNi43MjMsMjMuNDE2Yy0yNy40NTcsNS42NTktMTEuMzI2LDE1LjczNC0wLjc5NywxOC4zNjdjMTIuNzY4LDMuMTkzLDQyLjMwNSw3LjcxNiw2Mi4yNjgtMjAuMjI0ICAgIGwtMC43OTUsMy4xODhjNS4zMjUsNC4yNiw0Ljk2NSwzMC42MTksNS43Miw0OS40NTJjMC43NTYsMTguODM0LDIuMDE3LDM2LjQwOSw1Ljg1Niw0Ni43NzFjMy44MzksMTAuMzYsOC4zNjksMzcuMDUsNDQuMDM2LDI5LjQwNmMyOS44MDktNi4zODgsNTIuNi0xNS41ODIsNTQuNjc3LTEwMS4xMDciIHN0eWxlPSJmaWxsOiMwMDAwMDA7c3Ryb2tlOiMwMDAwMDA7c3Ryb2tlLXdpZHRoOjM3LjM5NTM7c3Ryb2tlLWxpbmVjYXA6YnV0dDtzdHJva2UtbGluZWpvaW46bWl0ZXI7Ii8+JiN4YTs8cGF0aCBkPSJNNDAyLjM5NSwyNzEuMjNjLTUwLjMwMiwxMC4zNzYtNTMuNzYtNi42NTUtNTMuNzYtNi42NTVjNTMuMTExLTc4LjgwOCw3NS4zMTMtMTc4Ljg0Myw1Ni4xNTMtMjAzLjMyNmMtNTIuMjctNjYuNzg1LTE0Mi43NTItMzUuMi0xNDQuMjYyLTM0LjM4bC0wLjQ4NiwwLjA4N2MtOS45MzgtMi4wNjMtMjEuMDYtMy4yOTItMzMuNTYtMy40OTZjLTIyLjc2MS0wLjM3My00MC4wMjYsNS45NjctNTMuMTI3LDE1LjkwMiAgICBjMCwwLTE2MS40MTEtNjYuNDk1LTE1My45MDQsODMuNjNjMS41OTcsMzEuOTM4LDQ1Ljc3NiwyNDEuNjU3LDk4LjQ3MSwxNzguMzEyYzE5LjI2LTIzLjE2MywzNy44NjktNDIuNzQ4LDM3Ljg2OS00Mi43NDhjOS4yNDMsNi4xNCwyMC4zMDgsOS4yNzIsMzEuOTA4LDguMTQ3bDAuOTAxLTAuNzY1Yy0wLjI4LDIuODc2LTAuMTUyLDUuNjg5LDAuMzYxLDkuMDE5Yy0xMy41NzUsMTUuMTY3LTkuNTg2LDE3LjgzLTM2LjcyMywyMy40MTYgICAgYy0yNy40NTksNS42NTktMTEuMzI4LDE1LjczNC0wLjc5NiwxOC4zNjdjMTIuNzY4LDMuMTkzLDQyLjMwNyw3LjcxNiw2Mi4yNjYtMjAuMjI0bC0wLjc5NiwzLjE4OGM1LjMxOSw0LjI2LDkuMDU0LDI3LjcxMSw4LjQyOCw0OC45NjljLTAuNjI2LDIxLjI1OS0xLjA0NCwzNS44NTQsMy4xNDcsNDcuMjU0YzQuMTkxLDExLjQsOC4zNjgsMzcuMDUsNDQuMDQyLDI5LjQwNmMyOS44MDktNi4zODgsNDUuMjU2LTIyLjk0Miw0Ny40MDUtNTAuNTU1ICAgIGMxLjUyNS0xOS42MzEsNC45NzYtMTYuNzI5LDUuMTk0LTM0LjI4bDIuNzY4LTguMzA5YzMuMTkyLTI2LjYxMSwwLjUwNy0zNS4xOTYsMTguODcyLTMxLjIwM2w0LjQ2MywwLjM5MmMxMy41MTcsMC42MTUsMzEuMjA4LTIuMTc0LDQxLjU5MS03YzIyLjM1OC0xMC4zNzYsMzUuNjE4LTI3LjcsMTMuNTczLTIzLjE0OHoiIHN0eWxlPSJmaWxsOiMzMzY3OTE7c3Ryb2tlOm5vbmU7Ii8+JiN4YTs8cGF0aCBkPSJNMjE1Ljg2NiwyODYuNDg0Yy0xLjM4NSw0OS41MTYsMC4zNDgsOTkuMzc3LDUuMTkzLDExMS40OTVjNC44NDgsMTIuMTE4LDE1LjIyMywzNS42ODgsNTAuOSwyOC4wNDVjMjkuODA2LTYuMzksNDAuNjUxLTE4Ljc1Niw0NS4zNTctNDYuMDUxYzMuNDY2LTIwLjA4MiwxMC4xNDgtNzUuODU0LDExLjAwNS04Ny4yODEiLz4mI3hhOzxwYXRoIGQ9Ik0xNzMuMTA0LDM4LjI1NmMwLDAtMTYxLjUyMS02Ni4wMTYtMTU0LjAxMiw4NC4xMDljMS41OTcsMzEuOTM4LDQ1Ljc3OSwyNDEuNjY0LDk4LjQ3MywxNzguMzE2YzE5LjI1Ni0yMy4xNjYsMzYuNjcxLTQxLjMzNSwzNi42NzEtNDEuMzM1Ii8+JiN4YTs8cGF0aCBkPSJNMjYwLjM0OSwyNi4yMDdjLTUuNTkxLDEuNzUzLDg5Ljg0OC0zNC44ODksMTQ0LjA4NywzNC40MTdjMTkuMTU5LDI0LjQ4NC0zLjA0MywxMjQuNTE5LTU2LjE1MywyMDMuMzI5Ii8+JiN4YTs8cGF0aCBkPSJNMzQ4LjI4MiwyNjMuOTUzYzAsMCwzLjQ2MSwxNy4wMzYsNTMuNzY0LDYuNjUzYzIyLjA0LTQuNTUyLDguNzc2LDEyLjc3NC0xMy41NzcsMjMuMTU1Yy0xOC4zNDUsOC41MTQtNTkuNDc0LDEwLjY5Ni02MC4xNDYtMS4wNjljLTEuNzI5LTMwLjM1NSwyMS42NDctMjEuMTMzLDE5Ljk2LTI4LjczOWMtMS41MjUtNi44NS0xMS45NzktMTMuNTczLTE4Ljg5NC0zMC4zMzggICAgYy02LjAzNy0xNC42MzMtODIuNzk2LTEyNi44NDksMjEuMjg3LTExMC4xODNjMy44MTMtMC43ODktMjcuMTQ2LTk5LjAwMi0xMjQuNTUzLTEwMC41OTljLTk3LjM4NS0xLjU5Ny05NC4xOSwxMTkuNzYyLTk0LjE5LDExOS43NjIiIHN0eWxlPSJzdHJva2UtbGluZWpvaW46YmV2ZWw7Ii8+JiN4YTs8cGF0aCBkPSJNMTg4LjYwNCwyNzQuMzM0Yy0xMy41NzcsMTUuMTY2LTkuNTg0LDE3LjgyOS0zNi43MjMsMjMuNDE3Yy0yNy40NTksNS42Ni0xMS4zMjYsMTUuNzMzLTAuNzk3LDE4LjM2NWMxMi43NjgsMy4xOTUsNDIuMzA3LDcuNzE4LDYyLjI2Ni0yMC4yMjljNi4wNzgtOC41MDktMC4wMzYtMjIuMDg2LTguMzg1LTI1LjU0N2MtNC4wMzQtMS42NzEtOS40MjgtMy43NjUtMTYuMzYxLDMuOTk0eiIvPiYjeGE7PHBhdGggZD0iTTE4Ny43MTUsMjc0LjA2OWMtMS4zNjgtOC45MTcsMi45My0xOS41MjgsNy41MzYtMzEuOTQyYzYuOTIyLTE4LjYyNiwyMi44OTMtMzcuMjU1LDEwLjExNy05Ni4zMzljLTkuNTIzLTQ0LjAyOS03My4zOTYtOS4xNjMtNzMuNDM2LTMuMTkzYy0wLjAzOSw1Ljk2OCwyLjg4OSwzMC4yNi0xLjA2Nyw1OC41NDhjLTUuMTYyLDM2LjkxMywyMy40ODgsNjguMTMyLDU2LjQ3OSw2NC45MzgiLz4mI3hhOzxwYXRoIGQ9Ik0xNzIuNTE3LDE0MS43Yy0wLjI4OCwyLjAzOSwzLjczMyw3LjQ4LDguOTc2LDguMjA3YzUuMjM0LDAuNzMsOS43MTQtMy41MjIsOS45OTgtNS41NTljMC4yODQtMi4wMzktMy43MzItNC4yODUtOC45NzctNS4wMTVjLTUuMjM3LTAuNzMxLTkuNzE5LDAuMzMzLTkuOTk2LDIuMzY3eiIgc3R5bGU9ImZpbGw6I0ZGRkZGRjtzdHJva2Utd2lkdGg6NC4xNTU7c3Ryb2tlLWxpbmVjYXA6YnV0dDtzdHJva2UtbGluZWpvaW46bWl0ZXI7Ii8+JiN4YTs8cGF0aCBkPSJNMzMxLjk0MSwxMzcuNTQzYzAuMjg0LDIuMDM5LTMuNzMyLDcuNDgtOC45NzYsOC4yMDdjLTUuMjM4LDAuNzMtOS43MTgtMy41MjItMTAuMDA1LTUuNTU5Yy0wLjI3Ny0yLjAzOSwzLjc0LTQuMjg1LDguOTc5LTUuMDE1YzUuMjM5LTAuNzMsOS43MTgsMC4zMzMsMTAuMDAyLDIuMzY4eiIgc3R5bGU9ImZpbGw6I0ZGRkZGRjtzdHJva2Utd2lkdGg6Mi4wNzc1O3N0cm9rZS1saW5lY2FwOmJ1dHQ7c3Ryb2tlLWxpbmVqb2luOm1pdGVyOyIvPiYjeGE7PHBhdGggZD0iTTM1MC42NzYsMTIzLjQzMmMwLjg2MywxNS45OTQtMy40NDUsMjYuODg4LTMuOTg4LDQzLjkxNGMtMC44MDQsMjQuNzQ4LDExLjc5OSw1My4wNzQtNy4xOTEsODEuNDM1Ii8+JiN4YTs8cGF0aCBkPSJNMCw2MC4yMzIiIHN0eWxlPSJzdHJva2Utd2lkdGg6MzsiLz4mI3hhOzwvZz4mI3hhOzwvc3ZnPg==;rounded=1;sketch=1;curveFitting=1;jiggle=2;" vertex="1" parent="1">
          <mxGeometry x="125.61000000000011" y="200" width="38.77" height="40" as="geometry" />
        </mxCell>
        <mxCell id="shM42MrG8GH0HLOxf-E8-15" value="Repo&lt;div&gt;Backups&lt;/div&gt;" style="strokeWidth=2;html=1;shape=mxgraph.flowchart.database;whiteSpace=wrap;fillColor=#dae8fc;strokeColor=#6c8ebf;sketch=1;curveFitting=1;jiggle=2;" vertex="1" parent="1">
          <mxGeometry x="80" y="360" width="130" height="230" as="geometry" />
        </mxCell>
        <mxCell id="shM42MrG8GH0HLOxf-E8-17" value="&lt;div&gt;&lt;span style=&quot;color: rgb(55, 65, 81); font-size: 16px; text-align: start; background-color: rgb(255, 255, 255);&quot;&gt;&lt;b style=&quot;&quot;&gt;&lt;font face=&quot;Helvetica&quot;&gt;Operator - pgo&lt;/font&gt;&lt;/b&gt;&lt;/span&gt;&lt;/div&gt;&lt;div&gt;&lt;span style=&quot;color: rgb(55, 65, 81); font-size: 16px; text-align: start; background-color: rgb(255, 255, 255);&quot;&gt;&lt;font face=&quot;Helvetica&quot;&gt;&lt;br&gt;&lt;/font&gt;&lt;/span&gt;&lt;/div&gt;&lt;font face=&quot;Helvetica&quot;&gt;&lt;span style=&quot;color: rgb(55, 65, 81); font-size: 16px; text-align: start; background-color: rgb(255, 255, 255);&quot;&gt;This PGO container holds a collection of Kubernetes controllers that manage native Kubernetes resources (Jobs, Pods) as well as&amp;nbsp;&lt;/span&gt;&lt;a style=&quot;box-sizing: border-box; border-width: 0px; border-style: solid; border-color: rgb(var(--border-default)); --tw-border-spacing-x: 0; --tw-border-spacing-y: 0; --tw-translate-x: 0; --tw-translate-y: 0; --tw-rotate: 0; --tw-skew-x: 0; --tw-skew-y: 0; --tw-scale-x: 1; --tw-scale-y: 1; --tw-pan-x: ; --tw-pan-y: ; --tw-pinch-zoom: ; --tw-scroll-snap-strictness: proximity; --tw-gradient-from-position: ; --tw-gradient-via-position: ; --tw-gradient-to-position: ; --tw-ordinal: ; --tw-slashed-zero: ; --tw-numeric-figure: ; --tw-numeric-spacing: ; --tw-numeric-fraction: ; --tw-ring-inset: ; --tw-ring-offset-width: 0px; --tw-ring-offset-color: #fff; --tw-ring-color: rgb(var(--ring-default) / .5); --tw-ring-offset-shadow: 0 0 #0000; --tw-ring-shadow: 0 0 #0000; --tw-shadow: 0 0 #0000; --tw-shadow-colored: 0 0 #0000; --tw-blur: ; --tw-brightness: ; --tw-contrast: ; --tw-grayscale: ; --tw-hue-rotate: ; --tw-invert: ; --tw-saturate: ; --tw-sepia: ; --tw-drop-shadow: ; --tw-backdrop-blur: ; --tw-backdrop-brightness: ; --tw-backdrop-contrast: ; --tw-backdrop-grayscale: ; --tw-backdrop-hue-rotate: ; --tw-backdrop-invert: ; --tw-backdrop-opacity: ; --tw-backdrop-saturate: ; --tw-backdrop-sepia: ; font-weight: 700; --tw-text-opacity: 1; text-underline-offset: 4px; font-size: 16px; text-align: start; background-color: rgb(255, 255, 255);&quot; href=&quot;https://kubernetes.io/docs/concepts/extend-kubernetes/api-extension/custom-resources/&quot;&gt;Custom Resources&lt;/a&gt;&lt;span style=&quot;color: rgb(55, 65, 81); font-size: 16px; text-align: start; background-color: rgb(255, 255, 255);&quot;&gt;&amp;nbsp;(PostgresCluster)&lt;/span&gt;&lt;/font&gt;" style="rounded=1;whiteSpace=wrap;html=1;fontFamily=Architects Daughter;fontSource=https%3A%2F%2Ffonts.googleapis.com%2Fcss%3Ffamily%3DArchitects%2BDaughter;fillColor=#ffe6cc;strokeColor=#d79b00;sketch=1;curveFitting=1;jiggle=2;shadow=0;" vertex="1" parent="1">
          <mxGeometry x="450" y="80" width="280" height="290" as="geometry" />
        </mxCell>
      </root>
    </mxGraphModel>
  </diagram>
</mxfile>
